<svg width="129" height="20" viewBox="0 0 129 20" fill="none" xmlns="http://www.w3.org/2000/svg">
<path d="M9.38011 0L11.4861 6.6865H18.3011L12.7876 10.819L14.8936 17.5055L9.38011 13.373L3.86662 17.5055L5.97258 10.819L0.459095 6.6865H7.27414L9.38011 0Z" fill="#FF9C00"/>
<path d="M37.0735 0L39.1794 6.6865H45.9945L40.481 10.819L42.587 17.5055L37.0735 13.373L31.56 17.5055L33.6659 10.819L28.1525 6.6865H34.9675L37.0735 0Z" fill="#FF9C00"/>
<path d="M64.7678 0L66.8738 6.6865H73.6888L68.1753 10.819L70.2813 17.5055L64.7678 13.373L59.2543 17.5055L61.3603 10.819L55.8468 6.6865H62.6618L64.7678 0Z" fill="#FF9C00"/>
<path d="M92.4612 0L94.5671 6.6865H101.382L95.8687 10.819L97.9746 17.5055L92.4612 13.373L86.9477 17.5055L89.0536 10.819L83.5401 6.6865H90.3552L92.4612 0Z" fill="#FF9C00"/>
<path d="M119.261 0L121.367 6.6865H128.182L122.668 10.819L124.774 17.5055L119.261 13.373L113.747 17.5055L115.853 10.819L110.34 6.6865H117.155L119.261 0Z" fill="#FF9C00"/>
</svg>
