<svg width="103" height="103" viewBox="0 0 103 103" fill="none" xmlns="http://www.w3.org/2000/svg">
<path d="M33 62.5733H40.2C40.2 66.5373 45.132 69.914 51 69.914C56.868 69.914 61.8 66.5373 61.8 62.5733C61.8 58.5359 58.056 57.0678 50.136 55.1225C42.504 53.1773 33 50.7548 33 40.5513C33 33.9814 38.292 28.4025 45.6 26.5306V18.5293H56.4V26.5306C63.708 28.4025 69 33.9814 69 40.5513H61.8C61.8 36.5873 56.868 33.2106 51 33.2106C45.132 33.2106 40.2 36.5873 40.2 40.5513C40.2 44.5887 43.944 46.0568 51.864 48.0021C59.496 49.9474 69 52.3698 69 62.5733C69 69.1432 63.708 74.7221 56.4 76.594V84.5953H45.6V76.594C38.292 74.7221 33 69.1432 33 62.5733Z" fill="white"/>
<circle cx="51.374" cy="51.374" r="47.874" stroke="white" stroke-width="7"/>
</svg>
