<svg width="284" height="192" viewBox="0 0 284 192" fill="none" xmlns="http://www.w3.org/2000/svg">
<path d="M7.50899 161.181L10.605 146.601H12.567L15.681 161.181H13.755L13.089 157.509H10.119L9.41699 161.181H7.50899ZM10.389 156.051H12.819L11.595 149.481L10.389 156.051ZM17.1784 161.181V146.601H19.1044V161.181H17.1784ZM22.3176 161.181L20.6436 150.777H22.2276L23.3076 158.445L24.6936 150.777H26.1696L27.5556 158.409L28.6356 150.777H30.2196L28.4916 161.181H26.8716L25.4496 153.837L24.0456 161.181H22.3176ZM33.5657 161.325C33.1577 161.325 32.7977 161.211 32.4857 160.983C32.1737 160.743 31.9277 160.443 31.7477 160.083C31.5677 159.711 31.4777 159.321 31.4777 158.913C31.4777 158.265 31.5857 157.719 31.8017 157.275C32.0177 156.831 32.3117 156.459 32.6837 156.159C33.0677 155.847 33.5057 155.577 33.9977 155.349C34.5017 155.121 35.0297 154.899 35.5817 154.683V153.945C35.5817 153.525 35.5577 153.177 35.5097 152.901C35.4617 152.625 35.3597 152.421 35.2037 152.289C35.0597 152.145 34.8377 152.073 34.5377 152.073C34.2737 152.073 34.0577 152.133 33.8897 152.253C33.7337 152.373 33.6197 152.547 33.5477 152.775C33.4757 152.991 33.4397 153.249 33.4397 153.549V154.071L31.5317 153.999C31.5557 152.847 31.8197 152.001 32.3237 151.461C32.8277 150.909 33.6077 150.633 34.6637 150.633C35.6957 150.633 36.4277 150.915 36.8597 151.479C37.2917 152.043 37.5077 152.859 37.5077 153.927V158.679C37.5077 159.003 37.5137 159.315 37.5257 159.615C37.5497 159.915 37.5737 160.197 37.5977 160.461C37.6337 160.713 37.6637 160.953 37.6877 161.181H35.9237C35.8877 160.989 35.8397 160.749 35.7797 160.461C35.7317 160.161 35.6957 159.891 35.6717 159.651C35.5517 160.059 35.3177 160.443 34.9697 160.803C34.6337 161.151 34.1657 161.325 33.5657 161.325ZM34.3217 159.669C34.5137 159.669 34.6937 159.615 34.8617 159.507C35.0297 159.399 35.1797 159.279 35.3117 159.147C35.4437 159.003 35.5337 158.889 35.5817 158.805V155.853C35.2817 156.021 34.9997 156.189 34.7357 156.357C34.4717 156.525 34.2377 156.705 34.0337 156.897C33.8417 157.077 33.6857 157.287 33.5657 157.527C33.4577 157.755 33.4037 158.019 33.4037 158.319C33.4037 158.739 33.4817 159.069 33.6377 159.309C33.7937 159.549 34.0217 159.669 34.3217 159.669ZM39.1957 163.791V162.315C39.6637 162.315 40.0357 162.291 40.3117 162.243C40.5877 162.207 40.7857 162.129 40.9057 162.009C41.0257 161.901 41.0857 161.745 41.0857 161.541C41.0857 161.433 41.0437 161.193 40.9597 160.821C40.8757 160.449 40.7857 160.053 40.6897 159.633L38.6017 150.777H40.5457L41.9497 158.553L43.2997 150.777H45.2437L42.7597 161.757C42.6517 162.261 42.4537 162.657 42.1657 162.945C41.8777 163.245 41.5057 163.461 41.0497 163.593C40.6057 163.725 40.0657 163.791 39.4297 163.791H39.1957ZM48.8186 161.325C47.9666 161.325 47.2826 161.061 46.7666 160.533C46.2506 159.993 45.9566 159.285 45.8846 158.409L47.4866 157.923C47.5826 158.583 47.7446 159.081 47.9726 159.417C48.2006 159.741 48.5366 159.903 48.9806 159.903C49.3286 159.903 49.5926 159.807 49.7726 159.615C49.9526 159.411 50.0426 159.141 50.0426 158.805C50.0426 158.505 49.9766 158.235 49.8446 157.995C49.7126 157.755 49.4966 157.509 49.1966 157.257L47.4146 155.727C47.0546 155.415 46.7486 155.067 46.4966 154.683C46.2566 154.299 46.1366 153.801 46.1366 153.189C46.1366 152.637 46.2446 152.175 46.4606 151.803C46.6886 151.419 47.0006 151.131 47.3966 150.939C47.8046 150.735 48.2786 150.633 48.8186 150.633C49.6466 150.633 50.2766 150.903 50.7086 151.443C51.1526 151.971 51.4046 152.613 51.4646 153.369L50.1686 153.855C50.1206 153.495 50.0486 153.183 49.9526 152.919C49.8566 152.643 49.7246 152.433 49.5566 152.289C49.3886 152.133 49.1666 152.055 48.8906 152.055C48.5786 152.055 48.3266 152.163 48.1346 152.379C47.9546 152.583 47.8646 152.829 47.8646 153.117C47.8646 153.297 47.9006 153.477 47.9726 153.657C48.0566 153.825 48.1946 153.993 48.3866 154.161L50.2226 155.853C50.4746 156.081 50.7086 156.327 50.9246 156.591C51.1526 156.855 51.3386 157.155 51.4826 157.491C51.6266 157.827 51.6986 158.217 51.6986 158.661C51.6986 159.249 51.5786 159.741 51.3386 160.137C51.0986 160.533 50.7626 160.833 50.3306 161.037C49.8986 161.229 49.3946 161.325 48.8186 161.325ZM60.1143 161.325C59.3463 161.325 58.7403 161.169 58.2963 160.857C57.8523 160.545 57.5343 160.101 57.3423 159.525C57.1623 158.949 57.0723 158.271 57.0723 157.491V154.467C57.0723 153.687 57.1623 153.009 57.3423 152.433C57.5343 151.857 57.8523 151.413 58.2963 151.101C58.7403 150.789 59.3463 150.633 60.1143 150.633C60.8823 150.633 61.4823 150.789 61.9143 151.101C62.3583 151.413 62.6703 151.857 62.8503 152.433C63.0423 153.009 63.1383 153.687 63.1383 154.467V157.491C63.1383 158.271 63.0423 158.949 62.8503 159.525C62.6703 160.101 62.3583 160.545 61.9143 160.857C61.4823 161.169 60.8823 161.325 60.1143 161.325ZM60.1143 159.903C60.4863 159.903 60.7443 159.795 60.8883 159.579C61.0443 159.363 61.1343 159.081 61.1583 158.733C61.1943 158.373 61.2123 158.001 61.2123 157.617V154.359C61.2123 153.963 61.1943 153.591 61.1583 153.243C61.1343 152.895 61.0443 152.613 60.8883 152.397C60.7443 152.169 60.4863 152.055 60.1143 152.055C59.7423 152.055 59.4783 152.169 59.3223 152.397C59.1663 152.613 59.0703 152.895 59.0343 153.243C59.0103 153.591 58.9983 153.963 58.9983 154.359V157.617C58.9983 158.001 59.0103 158.373 59.0343 158.733C59.0703 159.081 59.1663 159.363 59.3223 159.579C59.4783 159.795 59.7423 159.903 60.1143 159.903ZM64.8988 161.181V150.777H66.8248V151.803C67.1728 151.479 67.5568 151.203 67.9768 150.975C68.3968 150.747 68.8588 150.633 69.3628 150.633C69.7828 150.633 70.1008 150.741 70.3168 150.957C70.5448 151.173 70.7008 151.443 70.7848 151.767C70.8808 152.091 70.9288 152.421 70.9288 152.757V161.181H69.0028V153.315C69.0028 152.943 68.9488 152.655 68.8408 152.451C68.7328 152.247 68.5108 152.145 68.1748 152.145C67.9588 152.145 67.7308 152.211 67.4908 152.343C67.2628 152.463 67.0408 152.613 66.8248 152.793V161.181H64.8988ZM79.6942 161.325C79.1542 161.325 78.7162 161.223 78.3802 161.019C78.0562 160.815 77.8162 160.527 77.6602 160.155C77.5162 159.783 77.4442 159.345 77.4442 158.841V152.055H76.3462V150.777H77.4442V147.735H79.3702V150.777H81.0442V152.055H79.3702V158.715C79.3702 159.123 79.4362 159.417 79.5682 159.597C79.7002 159.765 79.9522 159.849 80.3242 159.849C80.4202 159.849 80.5282 159.843 80.6482 159.831C80.7802 159.819 80.9062 159.807 81.0262 159.795V161.217C80.7862 161.253 80.5642 161.277 80.3602 161.289C80.1562 161.313 79.9342 161.325 79.6942 161.325ZM82.5853 161.181V150.777H84.5113V161.181H82.5853ZM82.5853 149.229V147.213H84.5113V149.229H82.5853ZM86.5726 161.181V150.777H88.3546V151.767C88.7026 151.371 89.0866 151.077 89.5066 150.885C89.9266 150.693 90.3586 150.597 90.8026 150.597C91.1866 150.597 91.5286 150.693 91.8286 150.885C92.1406 151.077 92.3626 151.419 92.4946 151.911C92.8666 151.455 93.2686 151.125 93.7006 150.921C94.1446 150.705 94.6066 150.597 95.0866 150.597C95.4226 150.597 95.7286 150.681 96.0046 150.849C96.2806 151.005 96.5026 151.263 96.6706 151.623C96.8386 151.971 96.9226 152.433 96.9226 153.009V161.181H95.1586V153.135C95.1586 152.631 95.0746 152.295 94.9066 152.127C94.7506 151.947 94.5346 151.857 94.2586 151.857C93.9946 151.857 93.7186 151.935 93.4306 152.091C93.1426 152.235 92.8786 152.439 92.6386 152.703C92.6386 152.751 92.6386 152.799 92.6386 152.847C92.6386 152.895 92.6386 152.949 92.6386 153.009V161.181H90.8746V153.135C90.8746 152.631 90.7906 152.295 90.6226 152.127C90.4666 151.947 90.2506 151.857 89.9746 151.857C89.7106 151.857 89.4346 151.935 89.1466 152.091C88.8706 152.235 88.6066 152.439 88.3546 152.703V161.181H86.5726ZM101.687 161.325C100.871 161.325 100.241 161.169 99.797 160.857C99.353 160.533 99.041 160.065 98.861 159.453C98.693 158.829 98.609 158.067 98.609 157.167V154.791C98.609 153.867 98.699 153.099 98.879 152.487C99.059 151.875 99.371 151.413 99.815 151.101C100.271 150.789 100.895 150.633 101.687 150.633C102.563 150.633 103.205 150.813 103.613 151.173C104.033 151.533 104.309 152.055 104.441 152.739C104.573 153.411 104.639 154.221 104.639 155.169V156.015H100.535V158.103C100.535 158.523 100.571 158.865 100.643 159.129C100.727 159.393 100.853 159.591 101.021 159.723C101.201 159.843 101.429 159.903 101.705 159.903C101.993 159.903 102.209 159.837 102.353 159.705C102.509 159.561 102.611 159.363 102.659 159.111C102.719 158.847 102.749 158.541 102.749 158.193V157.563H104.621V157.959C104.621 159.003 104.399 159.825 103.955 160.425C103.511 161.025 102.755 161.325 101.687 161.325ZM100.535 154.971H102.749V154.035C102.749 153.603 102.725 153.243 102.677 152.955C102.629 152.655 102.527 152.433 102.371 152.289C102.227 152.133 101.993 152.055 101.669 152.055C101.357 152.055 101.117 152.127 100.949 152.271C100.793 152.415 100.685 152.661 100.625 153.009C100.565 153.345 100.535 153.813 100.535 154.413V154.971ZM111.108 161.181V152.199H109.866V150.777H111.108V150.237C111.108 149.589 111.156 149.037 111.252 148.581C111.36 148.113 111.576 147.753 111.9 147.501C112.224 147.249 112.71 147.123 113.358 147.123C113.598 147.123 113.808 147.135 113.988 147.159C114.18 147.171 114.39 147.201 114.618 147.249V148.653C114.51 148.629 114.39 148.611 114.258 148.599C114.126 148.575 114.006 148.563 113.898 148.563C113.526 148.563 113.286 148.689 113.178 148.941C113.082 149.181 113.034 149.505 113.034 149.913V150.777H114.618V152.199H113.034V161.181H111.108ZM118.526 161.325C117.758 161.325 117.152 161.169 116.708 160.857C116.264 160.545 115.946 160.101 115.754 159.525C115.574 158.949 115.484 158.271 115.484 157.491V154.467C115.484 153.687 115.574 153.009 115.754 152.433C115.946 151.857 116.264 151.413 116.708 151.101C117.152 150.789 117.758 150.633 118.526 150.633C119.294 150.633 119.894 150.789 120.326 151.101C120.77 151.413 121.082 151.857 121.262 152.433C121.454 153.009 121.55 153.687 121.55 154.467V157.491C121.55 158.271 121.454 158.949 121.262 159.525C121.082 160.101 120.77 160.545 120.326 160.857C119.894 161.169 119.294 161.325 118.526 161.325ZM118.526 159.903C118.898 159.903 119.156 159.795 119.3 159.579C119.456 159.363 119.546 159.081 119.57 158.733C119.606 158.373 119.624 158.001 119.624 157.617V154.359C119.624 153.963 119.606 153.591 119.57 153.243C119.546 152.895 119.456 152.613 119.3 152.397C119.156 152.169 118.898 152.055 118.526 152.055C118.154 152.055 117.89 152.169 117.734 152.397C117.578 152.613 117.482 152.895 117.446 153.243C117.422 153.591 117.41 153.963 117.41 154.359V157.617C117.41 158.001 117.422 158.373 117.446 158.733C117.482 159.081 117.578 159.363 117.734 159.579C117.89 159.795 118.154 159.903 118.526 159.903ZM123.365 161.181V150.777H125.291V152.253C125.675 151.617 126.059 151.191 126.443 150.975C126.827 150.759 127.211 150.651 127.595 150.651C127.643 150.651 127.685 150.651 127.721 150.651C127.769 150.651 127.829 150.657 127.901 150.669V152.793C127.757 152.733 127.589 152.685 127.397 152.649C127.217 152.601 127.031 152.577 126.839 152.577C126.539 152.577 126.263 152.649 126.011 152.793C125.771 152.925 125.531 153.189 125.291 153.585V161.181H123.365ZM133.045 163.791V162.315C133.513 162.315 133.885 162.291 134.161 162.243C134.437 162.207 134.635 162.129 134.755 162.009C134.875 161.901 134.935 161.745 134.935 161.541C134.935 161.433 134.893 161.193 134.809 160.821C134.725 160.449 134.635 160.053 134.539 159.633L132.451 150.777H134.395L135.799 158.553L137.149 150.777H139.093L136.609 161.757C136.501 162.261 136.303 162.657 136.015 162.945C135.727 163.245 135.355 163.461 134.899 163.593C134.455 163.725 133.915 163.791 133.279 163.791H133.045ZM143.118 161.325C142.35 161.325 141.744 161.169 141.3 160.857C140.856 160.545 140.538 160.101 140.346 159.525C140.166 158.949 140.076 158.271 140.076 157.491V154.467C140.076 153.687 140.166 153.009 140.346 152.433C140.538 151.857 140.856 151.413 141.3 151.101C141.744 150.789 142.35 150.633 143.118 150.633C143.886 150.633 144.486 150.789 144.918 151.101C145.362 151.413 145.674 151.857 145.854 152.433C146.046 153.009 146.142 153.687 146.142 154.467V157.491C146.142 158.271 146.046 158.949 145.854 159.525C145.674 160.101 145.362 160.545 144.918 160.857C144.486 161.169 143.886 161.325 143.118 161.325ZM143.118 159.903C143.49 159.903 143.748 159.795 143.892 159.579C144.048 159.363 144.138 159.081 144.162 158.733C144.198 158.373 144.216 158.001 144.216 157.617V154.359C144.216 153.963 144.198 153.591 144.162 153.243C144.138 152.895 144.048 152.613 143.892 152.397C143.748 152.169 143.49 152.055 143.118 152.055C142.746 152.055 142.482 152.169 142.326 152.397C142.17 152.613 142.074 152.895 142.038 153.243C142.014 153.591 142.002 153.963 142.002 154.359V157.617C142.002 158.001 142.014 158.373 142.038 158.733C142.074 159.081 142.17 159.363 142.326 159.579C142.482 159.795 142.746 159.903 143.118 159.903ZM149.397 161.325C148.989 161.325 148.671 161.217 148.443 161.001C148.215 160.785 148.053 160.515 147.957 160.191C147.873 159.867 147.831 159.537 147.831 159.201V150.777H149.757V158.625C149.757 158.997 149.811 159.291 149.919 159.507C150.027 159.711 150.249 159.813 150.585 159.813C150.801 159.813 151.023 159.753 151.251 159.633C151.491 159.501 151.719 159.345 151.935 159.165V150.777H153.861V161.181H151.935V160.155C151.599 160.479 151.215 160.755 150.783 160.983C150.363 161.211 149.901 161.325 149.397 161.325ZM155.884 161.181V150.777H157.81V152.253C158.194 151.617 158.578 151.191 158.962 150.975C159.346 150.759 159.73 150.651 160.114 150.651C160.162 150.651 160.204 150.651 160.24 150.651C160.288 150.651 160.348 150.657 160.42 150.669V152.793C160.276 152.733 160.108 152.685 159.916 152.649C159.736 152.601 159.55 152.577 159.358 152.577C159.058 152.577 158.782 152.649 158.53 152.793C158.29 152.925 158.05 153.189 157.81 153.585V161.181H155.884ZM165.727 164.601V150.777H167.653V151.605C167.881 151.341 168.157 151.113 168.481 150.921C168.805 150.729 169.189 150.633 169.633 150.633C170.173 150.633 170.599 150.777 170.911 151.065C171.235 151.341 171.475 151.695 171.631 152.127C171.787 152.547 171.889 152.979 171.937 153.423C171.985 153.855 172.009 154.227 172.009 154.539V157.059C172.009 157.791 171.937 158.487 171.793 159.147C171.649 159.795 171.385 160.323 171.001 160.731C170.629 161.127 170.101 161.325 169.417 161.325C169.045 161.325 168.715 161.235 168.427 161.055C168.139 160.863 167.881 160.647 167.653 160.407V164.601H165.727ZM169.039 159.813C169.375 159.813 169.615 159.693 169.759 159.453C169.903 159.201 169.993 158.865 170.029 158.445C170.065 158.025 170.083 157.563 170.083 157.059V154.539C170.083 154.107 170.059 153.711 170.011 153.351C169.963 152.979 169.861 152.685 169.705 152.469C169.549 152.253 169.303 152.145 168.967 152.145C168.715 152.145 168.475 152.199 168.247 152.307C168.019 152.415 167.821 152.541 167.653 152.685V159.345C167.833 159.477 168.037 159.591 168.265 159.687C168.493 159.771 168.751 159.813 169.039 159.813ZM173.886 161.181V150.777H175.812V161.181H173.886ZM173.886 149.229V147.213H175.812V149.229H173.886ZM180.717 161.325C179.865 161.325 179.217 161.157 178.773 160.821C178.341 160.473 178.047 159.987 177.891 159.363C177.747 158.739 177.675 158.013 177.675 157.185V154.791C177.675 153.915 177.753 153.171 177.909 152.559C178.065 151.935 178.359 151.461 178.791 151.137C179.235 150.801 179.877 150.633 180.717 150.633C181.473 150.633 182.055 150.759 182.463 151.011C182.883 151.251 183.171 151.617 183.327 152.109C183.483 152.589 183.561 153.189 183.561 153.909V154.521H181.815V153.891C181.815 153.435 181.785 153.075 181.725 152.811C181.665 152.547 181.557 152.355 181.401 152.235C181.245 152.115 181.023 152.055 180.735 152.055C180.423 152.055 180.183 152.127 180.015 152.271C179.847 152.415 179.733 152.661 179.673 153.009C179.625 153.345 179.601 153.807 179.601 154.395V157.671C179.601 158.559 179.685 159.153 179.853 159.453C180.021 159.753 180.321 159.903 180.753 159.903C181.077 159.903 181.311 159.831 181.455 159.687C181.611 159.531 181.707 159.315 181.743 159.039C181.791 158.763 181.815 158.451 181.815 158.103V157.257H183.561V157.977C183.561 158.673 183.477 159.273 183.309 159.777C183.153 160.281 182.865 160.665 182.445 160.929C182.037 161.193 181.461 161.325 180.717 161.325ZM185.31 161.163V146.583H187.236V155.277L190.044 150.777H192.06L189.612 154.845L191.988 161.181H190.062L188.118 155.853L187.236 157.185V161.163H185.31ZM192.901 156.483V155.025H196.915V156.483H192.901ZM202.698 161.343C201.642 161.343 200.832 161.133 200.268 160.713C199.704 160.293 199.32 159.705 199.116 158.949C198.912 158.181 198.81 157.287 198.81 156.267V146.601H200.754V156.357C200.754 156.981 200.796 157.551 200.88 158.067C200.964 158.583 201.144 158.991 201.42 159.291C201.708 159.591 202.134 159.741 202.698 159.741C203.274 159.741 203.7 159.591 203.976 159.291C204.252 158.991 204.432 158.583 204.516 158.067C204.6 157.551 204.642 156.981 204.642 156.357V146.601H206.568V156.267C206.568 157.287 206.466 158.181 206.262 158.949C206.058 159.705 205.674 160.293 205.11 160.713C204.558 161.133 203.754 161.343 202.698 161.343ZM208.547 164.601V150.777H210.473V151.605C210.701 151.341 210.977 151.113 211.301 150.921C211.625 150.729 212.009 150.633 212.453 150.633C212.993 150.633 213.419 150.777 213.731 151.065C214.055 151.341 214.295 151.695 214.451 152.127C214.607 152.547 214.709 152.979 214.757 153.423C214.805 153.855 214.829 154.227 214.829 154.539V157.059C214.829 157.791 214.757 158.487 214.613 159.147C214.469 159.795 214.205 160.323 213.821 160.731C213.449 161.127 212.921 161.325 212.237 161.325C211.865 161.325 211.535 161.235 211.247 161.055C210.959 160.863 210.701 160.647 210.473 160.407V164.601H208.547ZM211.859 159.813C212.195 159.813 212.435 159.693 212.579 159.453C212.723 159.201 212.813 158.865 212.849 158.445C212.885 158.025 212.903 157.563 212.903 157.059V154.539C212.903 154.107 212.879 153.711 212.831 153.351C212.783 152.979 212.681 152.685 212.525 152.469C212.369 152.253 212.123 152.145 211.787 152.145C211.535 152.145 211.295 152.199 211.067 152.307C210.839 152.415 210.641 152.541 210.473 152.685V159.345C210.653 159.477 210.857 159.591 211.085 159.687C211.313 159.771 211.571 159.813 211.859 159.813ZM216.634 163.539L216.328 162.711C216.652 162.603 216.904 162.411 217.084 162.135C217.276 161.871 217.372 161.553 217.372 161.181H216.346V159.111H218.326V161.145C218.326 161.781 218.188 162.285 217.912 162.657C217.636 163.041 217.21 163.335 216.634 163.539ZM225.923 161.325C225.515 161.325 225.155 161.211 224.843 160.983C224.531 160.743 224.285 160.443 224.105 160.083C223.925 159.711 223.835 159.321 223.835 158.913C223.835 158.265 223.943 157.719 224.159 157.275C224.375 156.831 224.669 156.459 225.041 156.159C225.425 155.847 225.863 155.577 226.355 155.349C226.859 155.121 227.387 154.899 227.939 154.683V153.945C227.939 153.525 227.915 153.177 227.867 152.901C227.819 152.625 227.717 152.421 227.561 152.289C227.417 152.145 227.195 152.073 226.895 152.073C226.631 152.073 226.415 152.133 226.247 152.253C226.091 152.373 225.977 152.547 225.905 152.775C225.833 152.991 225.797 153.249 225.797 153.549V154.071L223.889 153.999C223.913 152.847 224.177 152.001 224.681 151.461C225.185 150.909 225.965 150.633 227.021 150.633C228.053 150.633 228.785 150.915 229.217 151.479C229.649 152.043 229.865 152.859 229.865 153.927V158.679C229.865 159.003 229.871 159.315 229.883 159.615C229.907 159.915 229.931 160.197 229.955 160.461C229.991 160.713 230.021 160.953 230.045 161.181H228.281C228.245 160.989 228.197 160.749 228.137 160.461C228.089 160.161 228.053 159.891 228.029 159.651C227.909 160.059 227.675 160.443 227.327 160.803C226.991 161.151 226.523 161.325 225.923 161.325ZM226.679 159.669C226.871 159.669 227.051 159.615 227.219 159.507C227.387 159.399 227.537 159.279 227.669 159.147C227.801 159.003 227.891 158.889 227.939 158.805V155.853C227.639 156.021 227.357 156.189 227.093 156.357C226.829 156.525 226.595 156.705 226.391 156.897C226.199 157.077 226.043 157.287 225.923 157.527C225.815 157.755 225.761 158.019 225.761 158.319C225.761 158.739 225.839 159.069 225.995 159.309C226.151 159.549 226.379 159.669 226.679 159.669ZM231.715 161.181V150.777H233.641V151.803C233.989 151.479 234.373 151.203 234.793 150.975C235.213 150.747 235.675 150.633 236.179 150.633C236.599 150.633 236.917 150.741 237.133 150.957C237.361 151.173 237.517 151.443 237.601 151.767C237.697 152.091 237.745 152.421 237.745 152.757V161.181H235.819V153.315C235.819 152.943 235.765 152.655 235.657 152.451C235.549 152.247 235.327 152.145 234.991 152.145C234.775 152.145 234.547 152.211 234.307 152.343C234.079 152.463 233.857 152.613 233.641 152.793V161.181H231.715ZM242.037 161.325C241.161 161.325 240.507 161.007 240.075 160.371C239.643 159.723 239.427 158.631 239.427 157.095V155.079C239.427 154.287 239.493 153.555 239.625 152.883C239.757 152.199 240.003 151.653 240.363 151.245C240.735 150.837 241.275 150.633 241.983 150.633C242.331 150.633 242.649 150.711 242.937 150.867C243.225 151.023 243.483 151.215 243.711 151.443V146.601H245.637V161.181H243.711V160.515C243.483 160.755 243.231 160.953 242.955 161.109C242.691 161.253 242.385 161.325 242.037 161.325ZM242.523 159.813C242.703 159.813 242.895 159.783 243.099 159.723C243.303 159.651 243.507 159.549 243.711 159.417V152.595C243.543 152.475 243.357 152.373 243.153 152.289C242.949 152.193 242.727 152.145 242.487 152.145C242.043 152.145 241.743 152.361 241.587 152.793C241.431 153.213 241.353 153.723 241.353 154.323V157.257C241.353 157.737 241.377 158.175 241.425 158.571C241.485 158.955 241.599 159.261 241.767 159.489C241.935 159.705 242.187 159.813 242.523 159.813ZM252.313 161.181V152.199H251.071V150.777H252.313V150.237C252.313 149.589 252.361 149.037 252.457 148.581C252.565 148.113 252.781 147.753 253.105 147.501C253.429 147.249 253.915 147.123 254.563 147.123C254.803 147.123 255.013 147.135 255.193 147.159C255.385 147.171 255.595 147.201 255.823 147.249V148.653C255.715 148.629 255.595 148.611 255.463 148.599C255.331 148.575 255.211 148.563 255.103 148.563C254.731 148.563 254.491 148.689 254.383 148.941C254.287 149.181 254.239 149.505 254.239 149.913V150.777H255.823V152.199H254.239V161.181H252.313ZM256.923 161.181V150.777H258.849V152.253C259.233 151.617 259.617 151.191 260.001 150.975C260.385 150.759 260.769 150.651 261.153 150.651C261.201 150.651 261.243 150.651 261.279 150.651C261.327 150.651 261.387 150.657 261.459 150.669V152.793C261.315 152.733 261.147 152.685 260.955 152.649C260.775 152.601 260.589 152.577 260.397 152.577C260.097 152.577 259.821 152.649 259.569 152.793C259.329 152.925 259.089 153.189 258.849 153.585V161.181H256.923ZM265.533 161.325C264.717 161.325 264.087 161.169 263.643 160.857C263.199 160.533 262.887 160.065 262.707 159.453C262.539 158.829 262.455 158.067 262.455 157.167V154.791C262.455 153.867 262.545 153.099 262.725 152.487C262.905 151.875 263.217 151.413 263.661 151.101C264.117 150.789 264.741 150.633 265.533 150.633C266.409 150.633 267.051 150.813 267.459 151.173C267.879 151.533 268.155 152.055 268.287 152.739C268.419 153.411 268.485 154.221 268.485 155.169V156.015H264.381V158.103C264.381 158.523 264.417 158.865 264.489 159.129C264.573 159.393 264.699 159.591 264.867 159.723C265.047 159.843 265.275 159.903 265.551 159.903C265.839 159.903 266.055 159.837 266.199 159.705C266.355 159.561 266.457 159.363 266.505 159.111C266.565 158.847 266.595 158.541 266.595 158.193V157.563H268.467V157.959C268.467 159.003 268.245 159.825 267.801 160.425C267.357 161.025 266.601 161.325 265.533 161.325ZM264.381 154.971H266.595V154.035C266.595 153.603 266.571 153.243 266.523 152.955C266.475 152.655 266.373 152.433 266.217 152.289C266.073 152.133 265.839 152.055 265.515 152.055C265.203 152.055 264.963 152.127 264.795 152.271C264.639 152.415 264.531 152.661 264.471 153.009C264.411 153.345 264.381 153.813 264.381 154.413V154.971ZM273.109 161.325C272.293 161.325 271.663 161.169 271.219 160.857C270.775 160.533 270.463 160.065 270.283 159.453C270.115 158.829 270.031 158.067 270.031 157.167V154.791C270.031 153.867 270.121 153.099 270.301 152.487C270.481 151.875 270.793 151.413 271.237 151.101C271.693 150.789 272.317 150.633 273.109 150.633C273.985 150.633 274.627 150.813 275.035 151.173C275.455 151.533 275.731 152.055 275.863 152.739C275.995 153.411 276.061 154.221 276.061 155.169V156.015H271.957V158.103C271.957 158.523 271.993 158.865 272.065 159.129C272.149 159.393 272.275 159.591 272.443 159.723C272.623 159.843 272.851 159.903 273.127 159.903C273.415 159.903 273.631 159.837 273.775 159.705C273.931 159.561 274.033 159.363 274.081 159.111C274.141 158.847 274.171 158.541 274.171 158.193V157.563H276.043V157.959C276.043 159.003 275.821 159.825 275.377 160.425C274.933 161.025 274.177 161.325 273.109 161.325ZM271.957 154.971H274.171V154.035C274.171 153.603 274.147 153.243 274.099 152.955C274.051 152.655 273.949 152.433 273.793 152.289C273.649 152.133 273.415 152.055 273.091 152.055C272.779 152.055 272.539 152.127 272.371 152.271C272.215 152.415 272.107 152.661 272.047 153.009C271.987 153.345 271.957 153.813 271.957 154.413V154.971ZM82.4824 188.325C81.7144 188.325 81.1084 188.169 80.6644 187.857C80.2204 187.545 79.9024 187.101 79.7104 186.525C79.5304 185.949 79.4404 185.271 79.4404 184.491V181.467C79.4404 180.687 79.5304 180.009 79.7104 179.433C79.9024 178.857 80.2204 178.413 80.6644 178.101C81.1084 177.789 81.7144 177.633 82.4824 177.633C83.2504 177.633 83.8504 177.789 84.2824 178.101C84.7264 178.413 85.0384 178.857 85.2184 179.433C85.4104 180.009 85.5064 180.687 85.5064 181.467V184.491C85.5064 185.271 85.4104 185.949 85.2184 186.525C85.0384 187.101 84.7264 187.545 84.2824 187.857C83.8504 188.169 83.2504 188.325 82.4824 188.325ZM82.4824 186.903C82.8544 186.903 83.1124 186.795 83.2564 186.579C83.4124 186.363 83.5024 186.081 83.5264 185.733C83.5624 185.373 83.5804 185.001 83.5804 184.617V181.359C83.5804 180.963 83.5624 180.591 83.5264 180.243C83.5024 179.895 83.4124 179.613 83.2564 179.397C83.1124 179.169 82.8544 179.055 82.4824 179.055C82.1104 179.055 81.8464 179.169 81.6904 179.397C81.5344 179.613 81.4384 179.895 81.4024 180.243C81.3784 180.591 81.3664 180.963 81.3664 181.359V184.617C81.3664 185.001 81.3784 185.373 81.4024 185.733C81.4384 186.081 81.5344 186.363 81.6904 186.579C81.8464 186.795 82.1104 186.903 82.4824 186.903ZM87.8789 188.181V179.199H86.6369V177.777H87.8789V177.237C87.8789 176.589 87.9269 176.037 88.0229 175.581C88.1309 175.113 88.3469 174.753 88.6709 174.501C88.9949 174.249 89.4809 174.123 90.1289 174.123C90.3689 174.123 90.5789 174.135 90.7589 174.159C90.9509 174.171 91.1609 174.201 91.3889 174.249V175.653C91.2809 175.629 91.1609 175.611 91.0289 175.599C90.8969 175.575 90.7769 175.563 90.6689 175.563C90.2969 175.563 90.0569 175.689 89.9489 175.941C89.8529 176.181 89.8049 176.505 89.8049 176.913V177.777H91.3889V179.199H89.8049V188.181H87.8789ZM99.3922 188.325C98.5402 188.325 97.8922 188.157 97.4482 187.821C97.0162 187.473 96.7222 186.987 96.5662 186.363C96.4222 185.739 96.3502 185.013 96.3502 184.185V181.791C96.3502 180.915 96.4282 180.171 96.5842 179.559C96.7402 178.935 97.0342 178.461 97.4662 178.137C97.9102 177.801 98.5522 177.633 99.3922 177.633C100.148 177.633 100.73 177.759 101.138 178.011C101.558 178.251 101.846 178.617 102.002 179.109C102.158 179.589 102.236 180.189 102.236 180.909V181.521H100.49V180.891C100.49 180.435 100.46 180.075 100.4 179.811C100.34 179.547 100.232 179.355 100.076 179.235C99.9202 179.115 99.6982 179.055 99.4102 179.055C99.0982 179.055 98.8582 179.127 98.6902 179.271C98.5222 179.415 98.4082 179.661 98.3482 180.009C98.3002 180.345 98.2762 180.807 98.2762 181.395V184.671C98.2762 185.559 98.3602 186.153 98.5282 186.453C98.6962 186.753 98.9962 186.903 99.4282 186.903C99.7522 186.903 99.9862 186.831 100.13 186.687C100.286 186.531 100.382 186.315 100.418 186.039C100.466 185.763 100.49 185.451 100.49 185.103V184.257H102.236V184.977C102.236 185.673 102.152 186.273 101.984 186.777C101.828 187.281 101.54 187.665 101.12 187.929C100.712 188.193 100.136 188.325 99.3922 188.325ZM104.003 188.181V173.601H105.929V178.857C106.277 178.521 106.667 178.233 107.099 177.993C107.531 177.753 108.011 177.633 108.539 177.633C108.947 177.633 109.259 177.741 109.475 177.957C109.703 178.173 109.859 178.443 109.943 178.767C110.039 179.091 110.087 179.421 110.087 179.757V188.181H108.161V180.315C108.161 179.943 108.107 179.655 107.999 179.451C107.891 179.247 107.669 179.145 107.333 179.145C107.105 179.145 106.865 179.211 106.613 179.343C106.373 179.475 106.145 179.637 105.929 179.829V188.181H104.003ZM113.836 188.325C113.428 188.325 113.068 188.211 112.756 187.983C112.444 187.743 112.198 187.443 112.018 187.083C111.838 186.711 111.748 186.321 111.748 185.913C111.748 185.265 111.856 184.719 112.072 184.275C112.288 183.831 112.582 183.459 112.954 183.159C113.338 182.847 113.776 182.577 114.268 182.349C114.772 182.121 115.3 181.899 115.852 181.683V180.945C115.852 180.525 115.828 180.177 115.78 179.901C115.732 179.625 115.63 179.421 115.474 179.289C115.33 179.145 115.108 179.073 114.808 179.073C114.544 179.073 114.328 179.133 114.16 179.253C114.004 179.373 113.89 179.547 113.818 179.775C113.746 179.991 113.71 180.249 113.71 180.549V181.071L111.802 180.999C111.826 179.847 112.09 179.001 112.594 178.461C113.098 177.909 113.878 177.633 114.934 177.633C115.966 177.633 116.698 177.915 117.13 178.479C117.562 179.043 117.778 179.859 117.778 180.927V185.679C117.778 186.003 117.784 186.315 117.796 186.615C117.82 186.915 117.844 187.197 117.868 187.461C117.904 187.713 117.934 187.953 117.958 188.181H116.194C116.158 187.989 116.11 187.749 116.05 187.461C116.002 187.161 115.966 186.891 115.942 186.651C115.822 187.059 115.588 187.443 115.24 187.803C114.904 188.151 114.436 188.325 113.836 188.325ZM114.592 186.669C114.784 186.669 114.964 186.615 115.132 186.507C115.3 186.399 115.45 186.279 115.582 186.147C115.714 186.003 115.804 185.889 115.852 185.805V182.853C115.552 183.021 115.27 183.189 115.006 183.357C114.742 183.525 114.508 183.705 114.304 183.897C114.112 184.077 113.956 184.287 113.836 184.527C113.728 184.755 113.674 185.019 113.674 185.319C113.674 185.739 113.752 186.069 113.908 186.309C114.064 186.549 114.292 186.669 114.592 186.669ZM119.682 188.181V177.777H121.608V179.253C121.992 178.617 122.376 178.191 122.76 177.975C123.144 177.759 123.528 177.651 123.912 177.651C123.96 177.651 124.002 177.651 124.038 177.651C124.086 177.651 124.146 177.657 124.218 177.669V179.793C124.074 179.733 123.906 179.685 123.714 179.649C123.534 179.601 123.348 179.577 123.156 179.577C122.856 179.577 122.58 179.649 122.328 179.793C122.088 179.925 121.848 180.189 121.608 180.585V188.181H119.682ZM128.111 191.403C127.487 191.403 126.923 191.337 126.419 191.205C125.915 191.073 125.519 190.863 125.231 190.575C124.943 190.287 124.799 189.909 124.799 189.441C124.799 189.105 124.871 188.811 125.015 188.559C125.159 188.307 125.345 188.091 125.573 187.911C125.801 187.719 126.041 187.563 126.293 187.443C125.957 187.347 125.705 187.197 125.537 186.993C125.369 186.777 125.285 186.555 125.285 186.327C125.285 185.943 125.387 185.613 125.591 185.337C125.795 185.061 126.077 184.761 126.437 184.437C126.041 184.137 125.741 183.753 125.537 183.285C125.333 182.817 125.231 182.169 125.231 181.341C125.231 180.525 125.339 179.847 125.555 179.307C125.783 178.755 126.113 178.341 126.545 178.065C126.989 177.777 127.529 177.633 128.165 177.633C128.729 177.633 129.179 177.729 129.515 177.921C129.863 178.113 130.127 178.401 130.307 178.785C130.367 178.689 130.529 178.527 130.793 178.299C131.057 178.059 131.363 177.861 131.711 177.705L131.999 177.579L132.485 178.821C132.329 178.845 132.119 178.905 131.855 179.001C131.603 179.085 131.363 179.175 131.135 179.271C130.919 179.355 130.781 179.427 130.721 179.487C130.805 179.691 130.877 179.985 130.937 180.369C131.009 180.753 131.045 181.095 131.045 181.395C131.045 182.103 130.955 182.727 130.775 183.267C130.595 183.807 130.295 184.233 129.875 184.545C129.467 184.845 128.897 184.995 128.165 184.995C128.009 184.995 127.841 184.983 127.661 184.959C127.481 184.935 127.319 184.905 127.175 184.869C127.103 184.977 127.025 185.103 126.941 185.247C126.869 185.391 126.833 185.529 126.833 185.661C126.833 185.793 126.899 185.901 127.031 185.985C127.175 186.057 127.397 186.105 127.697 186.129L129.317 186.273C130.133 186.345 130.739 186.591 131.135 187.011C131.531 187.431 131.729 188.031 131.729 188.811C131.729 189.375 131.597 189.849 131.333 190.233C131.069 190.629 130.667 190.923 130.127 191.115C129.599 191.307 128.927 191.403 128.111 191.403ZM128.255 189.891C128.939 189.891 129.443 189.807 129.767 189.639C130.091 189.483 130.253 189.225 130.253 188.865C130.253 188.649 130.211 188.469 130.127 188.325C130.055 188.181 129.917 188.067 129.713 187.983C129.509 187.899 129.215 187.839 128.831 187.803L127.193 187.659C127.061 187.791 126.935 187.923 126.815 188.055C126.695 188.187 126.599 188.325 126.527 188.469C126.455 188.625 126.419 188.787 126.419 188.955C126.419 189.267 126.551 189.501 126.815 189.657C127.079 189.813 127.559 189.891 128.255 189.891ZM128.165 183.645C128.441 183.645 128.657 183.597 128.813 183.501C128.981 183.393 129.107 183.243 129.191 183.051C129.275 182.847 129.329 182.601 129.353 182.313C129.389 182.025 129.407 181.701 129.407 181.341C129.407 180.981 129.389 180.657 129.353 180.369C129.329 180.069 129.275 179.817 129.191 179.613C129.119 179.397 128.999 179.235 128.831 179.127C128.675 179.019 128.459 178.965 128.183 178.965C127.919 178.965 127.697 179.019 127.517 179.127C127.349 179.235 127.223 179.391 127.139 179.595C127.055 179.787 126.995 180.033 126.959 180.333C126.923 180.621 126.905 180.957 126.905 181.341C126.905 181.665 126.917 181.971 126.941 182.259C126.977 182.535 127.037 182.775 127.121 182.979C127.217 183.183 127.349 183.345 127.517 183.465C127.685 183.585 127.901 183.645 128.165 183.645ZM136.043 188.325C135.227 188.325 134.597 188.169 134.153 187.857C133.709 187.533 133.397 187.065 133.217 186.453C133.049 185.829 132.965 185.067 132.965 184.167V181.791C132.965 180.867 133.055 180.099 133.235 179.487C133.415 178.875 133.727 178.413 134.171 178.101C134.627 177.789 135.251 177.633 136.043 177.633C136.919 177.633 137.561 177.813 137.969 178.173C138.389 178.533 138.665 179.055 138.797 179.739C138.929 180.411 138.995 181.221 138.995 182.169V183.015H134.891V185.103C134.891 185.523 134.927 185.865 134.999 186.129C135.083 186.393 135.209 186.591 135.377 186.723C135.557 186.843 135.785 186.903 136.061 186.903C136.349 186.903 136.565 186.837 136.709 186.705C136.865 186.561 136.967 186.363 137.015 186.111C137.075 185.847 137.105 185.541 137.105 185.193V184.563H138.977V184.959C138.977 186.003 138.755 186.825 138.311 187.425C137.867 188.025 137.111 188.325 136.043 188.325ZM134.891 181.971H137.105V181.035C137.105 180.603 137.081 180.243 137.033 179.955C136.985 179.655 136.883 179.433 136.727 179.289C136.583 179.133 136.349 179.055 136.025 179.055C135.713 179.055 135.473 179.127 135.305 179.271C135.149 179.415 135.041 179.661 134.981 180.009C134.921 180.345 134.891 180.813 134.891 181.413V181.971ZM146.059 188.181L144.385 177.777H145.969L147.049 185.445L148.435 177.777H149.911L151.297 185.409L152.377 177.777H153.961L152.233 188.181H150.613L149.191 180.837L147.787 188.181H146.059ZM157.307 188.325C156.899 188.325 156.539 188.211 156.227 187.983C155.915 187.743 155.669 187.443 155.489 187.083C155.309 186.711 155.219 186.321 155.219 185.913C155.219 185.265 155.327 184.719 155.543 184.275C155.759 183.831 156.053 183.459 156.425 183.159C156.809 182.847 157.247 182.577 157.739 182.349C158.243 182.121 158.771 181.899 159.323 181.683V180.945C159.323 180.525 159.299 180.177 159.251 179.901C159.203 179.625 159.101 179.421 158.945 179.289C158.801 179.145 158.579 179.073 158.279 179.073C158.015 179.073 157.799 179.133 157.631 179.253C157.475 179.373 157.361 179.547 157.289 179.775C157.217 179.991 157.181 180.249 157.181 180.549V181.071L155.273 180.999C155.297 179.847 155.561 179.001 156.065 178.461C156.569 177.909 157.349 177.633 158.405 177.633C159.437 177.633 160.169 177.915 160.601 178.479C161.033 179.043 161.249 179.859 161.249 180.927V185.679C161.249 186.003 161.255 186.315 161.267 186.615C161.291 186.915 161.315 187.197 161.339 187.461C161.375 187.713 161.405 187.953 161.429 188.181H159.665C159.629 187.989 159.581 187.749 159.521 187.461C159.473 187.161 159.437 186.891 159.413 186.651C159.293 187.059 159.059 187.443 158.711 187.803C158.375 188.151 157.907 188.325 157.307 188.325ZM158.063 186.669C158.255 186.669 158.435 186.615 158.603 186.507C158.771 186.399 158.921 186.279 159.053 186.147C159.185 186.003 159.275 185.889 159.323 185.805V182.853C159.023 183.021 158.741 183.189 158.477 183.357C158.213 183.525 157.979 183.705 157.775 183.897C157.583 184.077 157.427 184.287 157.307 184.527C157.199 184.755 157.145 185.019 157.145 185.319C157.145 185.739 157.223 186.069 157.379 186.309C157.535 186.549 157.763 186.669 158.063 186.669ZM163.225 188.181V177.777H165.151V188.181H163.225ZM163.225 176.229V174.213H165.151V176.229H163.225ZM169.984 188.325C169.444 188.325 169.006 188.223 168.67 188.019C168.346 187.815 168.106 187.527 167.95 187.155C167.806 186.783 167.734 186.345 167.734 185.841V179.055H166.636V177.777H167.734V174.735H169.66V177.777H171.334V179.055H169.66V185.715C169.66 186.123 169.726 186.417 169.858 186.597C169.99 186.765 170.242 186.849 170.614 186.849C170.71 186.849 170.818 186.843 170.938 186.831C171.07 186.819 171.196 186.807 171.316 186.795V188.217C171.076 188.253 170.854 188.277 170.65 188.289C170.446 188.313 170.224 188.325 169.984 188.325ZM179.635 188.325C179.095 188.325 178.657 188.223 178.321 188.019C177.997 187.815 177.757 187.527 177.601 187.155C177.457 186.783 177.385 186.345 177.385 185.841V179.055H176.287V177.777H177.385V174.735H179.311V177.777H180.985V179.055H179.311V185.715C179.311 186.123 179.377 186.417 179.509 186.597C179.641 186.765 179.893 186.849 180.265 186.849C180.361 186.849 180.469 186.843 180.589 186.831C180.721 186.819 180.847 186.807 180.967 186.795V188.217C180.727 188.253 180.505 188.277 180.301 188.289C180.097 188.313 179.875 188.325 179.635 188.325ZM182.526 188.181V177.777H184.452V188.181H182.526ZM182.526 176.229V174.213H184.452V176.229H182.526ZM186.513 188.181V177.777H188.295V178.767C188.643 178.371 189.027 178.077 189.447 177.885C189.867 177.693 190.299 177.597 190.743 177.597C191.127 177.597 191.469 177.693 191.769 177.885C192.081 178.077 192.303 178.419 192.435 178.911C192.807 178.455 193.209 178.125 193.641 177.921C194.085 177.705 194.547 177.597 195.027 177.597C195.363 177.597 195.669 177.681 195.945 177.849C196.221 178.005 196.443 178.263 196.611 178.623C196.779 178.971 196.863 179.433 196.863 180.009V188.181H195.099V180.135C195.099 179.631 195.015 179.295 194.847 179.127C194.691 178.947 194.475 178.857 194.199 178.857C193.935 178.857 193.659 178.935 193.371 179.091C193.083 179.235 192.819 179.439 192.579 179.703C192.579 179.751 192.579 179.799 192.579 179.847C192.579 179.895 192.579 179.949 192.579 180.009V188.181H190.815V180.135C190.815 179.631 190.731 179.295 190.563 179.127C190.407 178.947 190.191 178.857 189.915 178.857C189.651 178.857 189.375 178.935 189.087 179.091C188.811 179.235 188.547 179.439 188.295 179.703V188.181H186.513ZM201.627 188.325C200.811 188.325 200.181 188.169 199.737 187.857C199.293 187.533 198.981 187.065 198.801 186.453C198.633 185.829 198.549 185.067 198.549 184.167V181.791C198.549 180.867 198.639 180.099 198.819 179.487C198.999 178.875 199.311 178.413 199.755 178.101C200.211 177.789 200.835 177.633 201.627 177.633C202.503 177.633 203.145 177.813 203.553 178.173C203.973 178.533 204.249 179.055 204.381 179.739C204.513 180.411 204.579 181.221 204.579 182.169V183.015H200.475V185.103C200.475 185.523 200.511 185.865 200.583 186.129C200.667 186.393 200.793 186.591 200.961 186.723C201.141 186.843 201.369 186.903 201.645 186.903C201.933 186.903 202.149 186.837 202.293 186.705C202.449 186.561 202.551 186.363 202.599 186.111C202.659 185.847 202.689 185.541 202.689 185.193V184.563H204.561V184.959C204.561 186.003 204.339 186.825 203.895 187.425C203.451 188.025 202.695 188.325 201.627 188.325ZM200.475 181.971H202.689V181.035C202.689 180.603 202.665 180.243 202.617 179.955C202.569 179.655 202.467 179.433 202.311 179.289C202.167 179.133 201.933 179.055 201.609 179.055C201.297 179.055 201.057 179.127 200.889 179.271C200.733 179.415 200.625 179.661 200.565 180.009C200.505 180.345 200.475 180.813 200.475 181.413V181.971Z" fill="#F8FAFF"/>
<path d="M164.413 29.1563C163.78 27.3125 162.007 26 159.917 26H125.083C122.993 26 121.252 27.3125 120.587 29.1563L114 47.875V71.3125C114 73.9062 116.122 76 118.75 76C121.378 76 123.5 73.9062 123.5 71.3125V69.75H161.5V71.3125C161.5 73.875 163.622 76 166.25 76C168.847 76 171 73.9062 171 71.3125V47.875L164.413 29.1563ZM128.25 60.375C125.622 60.375 123.5 58.2812 123.5 55.6875C123.5 53.0938 125.622 51 128.25 51C130.878 51 133 53.0938 133 55.6875C133 58.2812 130.878 60.375 128.25 60.375ZM156.75 60.375C154.122 60.375 152 58.2812 152 55.6875C152 53.0938 154.122 51 156.75 51C159.378 51 161.5 53.0938 161.5 55.6875C161.5 58.2812 159.378 60.375 156.75 60.375ZM122.898 41.625L126.192 32.25H158.777L162.07 41.625H122.898Z" fill="white"/>
<circle cx="142.374" cy="51.374" r="47.874" stroke="white" stroke-width="7"/>
</svg>
