<svg width="103" height="103" viewBox="0 0 103 103" fill="none" xmlns="http://www.w3.org/2000/svg">
<path d="M51.5 23.5342C35.7609 23.5342 23 36.0837 23 51.5622C23 67.0407 35.7609 79.5902 51.5 79.5902C67.2391 79.5902 80 67.0407 80 51.5622C80 36.0837 67.2391 23.5342 51.5 23.5342ZM53.875 53.8979H34.8631C33.5569 53.8979 32.5 52.8585 32.5 51.5739V51.5482C32.5 50.2659 33.5569 49.2265 34.8631 49.2265H49.125V30.5295C49.125 29.2449 50.1819 28.2055 51.4881 28.2055H51.5142C52.8181 28.2055 53.875 29.2449 53.875 30.5295V53.8979Z" fill="white"/>
<circle cx="51.374" cy="51.374" r="47.874" stroke="white" stroke-width="7"/>
</svg>
