<svg width="103" height="103" viewBox="0 0 103 103" fill="none" xmlns="http://www.w3.org/2000/svg">
<path d="M73.4133 29.6965C72.78 27.8509 71.0067 26.5371 68.9167 26.5371H34.0833C31.9933 26.5371 30.2517 27.8509 29.5867 29.6965L23 48.434V71.8949C23 74.4913 25.1217 76.5871 27.75 76.5871C30.3783 76.5871 32.5 74.4913 32.5 71.8949V70.3309H70.5V71.8949C70.5 74.46 72.6217 76.5871 75.25 76.5871C77.8467 76.5871 80 74.4913 80 71.8949V48.434L73.4133 29.6965ZM37.25 60.9465C34.6217 60.9465 32.5 58.8507 32.5 56.2543C32.5 53.658 34.6217 51.5621 37.25 51.5621C39.8783 51.5621 42 53.658 42 56.2543C42 58.8507 39.8783 60.9465 37.25 60.9465ZM65.75 60.9465C63.1217 60.9465 61 58.8507 61 56.2543C61 53.658 63.1217 51.5621 65.75 51.5621C68.3783 51.5621 70.5 53.658 70.5 56.2543C70.5 58.8507 68.3783 60.9465 65.75 60.9465ZM31.8983 42.1777L35.1917 32.7934H67.7767L71.07 42.1777H31.8983Z" fill="white"/>
<circle cx="51.374" cy="51.374" r="47.874" stroke="white" stroke-width="7"/>
</svg>
