<svg width="11" height="8" viewBox="0 0 11 8" fill="none" xmlns="http://www.w3.org/2000/svg">
<path d="M5.5 7.92351C5.63154 7.92351 5.7588 7.89676 5.88179 7.84327C6.00544 7.78978 6.10837 7.71847 6.19058 7.62932L10.7287 2.70837C10.9096 2.51225 11 2.26263 11 1.95953C11 1.65643 10.9096 1.40682 10.7287 1.21069C10.5478 1.01457 10.3176 0.916504 10.0381 0.916504C9.7586 0.916504 9.5284 1.01457 9.34753 1.21069L5.5 5.3828L1.65247 1.21069C1.4716 1.01457 1.24141 0.916504 0.961884 0.916504C0.682362 0.916504 0.452169 1.01457 0.271302 1.21069C0.0904348 1.40682 -2.03899e-07 1.65643 -2.03899e-07 1.95953C-2.03899e-07 2.26263 0.0904348 2.51225 0.271302 2.70837L4.80942 7.62932C4.90807 7.7363 5.01495 7.81189 5.13005 7.85611C5.24514 7.90104 5.36846 7.92351 5.5 7.92351Z" fill="black"/>
</svg>
