<svg width="12" height="8" viewBox="0 0 12 8" fill="none" xmlns="http://www.w3.org/2000/svg">
<path d="M6.57035 0.000404836C6.43884 -0.00222232 6.31106 0.0219487 6.18703 0.072917C6.06234 0.123872 5.95801 0.193048 5.87404 0.280447L1.23864 5.10486C1.05389 5.29714 0.958499 5.54465 0.952452 5.84738C0.946404 6.15012 1.03184 6.40124 1.20876 6.60074C1.38567 6.80025 1.61387 6.90279 1.89333 6.90837C2.1728 6.91395 2.4049 6.82061 2.58965 6.62833L6.51966 2.53807L10.2832 6.78202C10.4601 6.98152 10.6883 7.08406 10.9678 7.08965C11.2472 7.09523 11.4793 7.00188 11.6641 6.8096C11.8488 6.61733 11.9442 6.36982 11.9503 6.06708C11.9563 5.76434 11.8709 5.51322 11.694 5.31372L7.25493 0.308032C7.15842 0.199213 7.05308 0.121572 6.93889 0.0751092C6.82471 0.0279338 6.70186 0.003032 6.57035 0.000404836Z" fill="white"/>
</svg>
