<svg width="12" height="8" viewBox="0 0 12 8" fill="none" xmlns="http://www.w3.org/2000/svg">
<path d="M6.57035 0.577986C6.43884 0.575356 6.31106 0.599551 6.18703 0.65057C6.06234 0.701576 5.95801 0.770822 5.87404 0.858308L1.23864 5.68755C1.05389 5.88002 0.958499 6.12777 0.952452 6.43081C0.946404 6.73386 1.03184 6.98523 1.20876 7.18493C1.38567 7.38463 1.61387 7.48727 1.89333 7.49286C2.1728 7.49845 2.4049 7.40501 2.58965 7.21254L6.51966 3.11819L10.2832 7.36638C10.4601 7.56609 10.6883 7.66873 10.9678 7.67432C11.2472 7.67991 11.4793 7.58647 11.6641 7.394C11.8488 7.20153 11.9442 6.95377 11.9503 6.65073C11.9563 6.34769 11.8709 6.09632 11.694 5.89662L7.25493 0.885921C7.15842 0.776993 7.05308 0.699274 6.93889 0.652765C6.82471 0.605542 6.70186 0.580615 6.57035 0.577986Z" fill="black"/>
</svg>
