<svg width="11" height="8" viewBox="0 0 11 8" fill="none" xmlns="http://www.w3.org/2000/svg">
<path d="M5.5 7.85954C5.63154 7.85954 5.7588 7.8328 5.88179 7.77931C6.00544 7.72582 6.10837 7.6545 6.19058 7.56535L10.7287 2.64441C10.9096 2.44828 11 2.19867 11 1.89557C11 1.59246 10.9096 1.34285 10.7287 1.14673C10.5478 0.950601 10.3176 0.852539 10.0381 0.852539C9.7586 0.852539 9.5284 0.950601 9.34753 1.14673L5.5 5.31883L1.65247 1.14673C1.4716 0.950601 1.24141 0.852539 0.961884 0.852539C0.682362 0.852539 0.452169 0.950601 0.271302 1.14673C0.0904348 1.34285 -2.03899e-07 1.59246 -2.03899e-07 1.89557C-2.03899e-07 2.19867 0.0904348 2.44828 0.271302 2.64441L4.80942 7.56535C4.90807 7.67233 5.01495 7.74793 5.13005 7.79215C5.24514 7.83708 5.36846 7.85954 5.5 7.85954Z" fill="black"/>
</svg>
