<svg width="11" height="7" viewBox="0 0 11 7" fill="none" xmlns="http://www.w3.org/2000/svg">
<path d="M5.5 7C5.63154 7 5.7588 6.97328 5.88179 6.91985C6.00544 6.86641 6.10837 6.79516 6.19058 6.70611L10.7287 1.79008C10.9096 1.59415 11 1.34478 11 1.04198C11 0.739185 10.9096 0.489821 10.7287 0.293893C10.5478 0.097964 10.3176 0 10.0381 0C9.7586 0 9.5284 0.097964 9.34753 0.293893L5.5 4.46183L1.65247 0.293893C1.4716 0.097964 1.24141 0 0.961884 0C0.682362 0 0.452168 0.097964 0.271301 0.293893C0.090435 0.489821 0 0.739185 0 1.04198C0 1.34478 0.090435 1.59415 0.271301 1.79008L4.80942 6.70611C4.90807 6.81298 5.01495 6.8885 5.13005 6.93267C5.24514 6.97756 5.36846 7 5.5 7Z" fill="white"/>
</svg>
