<svg width="11" height="8" viewBox="0 0 11 8" fill="none" xmlns="http://www.w3.org/2000/svg">
<path d="M5.5 7.72136C5.63154 7.72136 5.7588 7.69461 5.88179 7.64112C6.00544 7.58764 6.10837 7.51632 6.19058 7.42717L10.7287 2.50622C10.9096 2.3101 11 2.06048 11 1.75738C11 1.45428 10.9096 1.20467 10.7287 1.00854C10.5478 0.812417 10.3176 0.714355 10.0381 0.714355C9.7586 0.714355 9.5284 0.812417 9.34753 1.00854L5.5 5.18065L1.65247 1.00854C1.4716 0.812417 1.24141 0.714355 0.961884 0.714355C0.682362 0.714355 0.452169 0.812417 0.271302 1.00854C0.0904348 1.20467 -2.03899e-07 1.45428 -2.03899e-07 1.75738C-2.03899e-07 2.06048 0.0904348 2.3101 0.271302 2.50622L4.80942 7.42717C4.90807 7.53415 5.01495 7.60974 5.13005 7.65396C5.24514 7.69889 5.36846 7.72136 5.5 7.72136Z" fill="black"/>
</svg>
