<svg width="11" height="8" viewBox="0 0 11 8" fill="none" xmlns="http://www.w3.org/2000/svg">
<path d="M5.5 7.97771C5.63154 7.97771 5.7588 7.95096 5.88179 7.89747C6.00544 7.84398 6.10837 7.77267 6.19058 7.68352L10.7287 2.76257C10.9096 2.56645 11 2.31683 11 2.01373C11 1.71063 10.9096 1.46101 10.7287 1.26489C10.5478 1.06877 10.3176 0.970703 10.0381 0.970703C9.7586 0.970703 9.5284 1.06877 9.34753 1.26489L5.5 5.437L1.65247 1.26489C1.4716 1.06877 1.24141 0.970703 0.961884 0.970703C0.682362 0.970703 0.452169 1.06877 0.271302 1.26489C0.0904348 1.46101 -2.03899e-07 1.71063 -2.03899e-07 2.01373C-2.03899e-07 2.31683 0.0904348 2.56645 0.271302 2.76257L4.80942 7.68352C4.90807 7.7905 5.01495 7.86609 5.13005 7.91031C5.24514 7.95524 5.36846 7.97771 5.5 7.97771Z" fill="black"/>
</svg>
