<svg width="11" height="8" viewBox="0 0 11 8" fill="none" xmlns="http://www.w3.org/2000/svg">
<path d="M5.5 7.78239C5.63154 7.78239 5.7588 7.75565 5.88179 7.70216C6.00544 7.64867 6.10837 7.57735 6.19058 7.48821L10.7287 2.56726C10.9096 2.37113 11 2.12152 11 1.81842C11 1.51532 10.9096 1.2657 10.7287 1.06958C10.5478 0.873453 10.3176 0.775391 10.0381 0.775391C9.7586 0.775391 9.5284 0.873453 9.34753 1.06958L5.5 5.24169L1.65247 1.06958C1.4716 0.873453 1.24141 0.775391 0.961884 0.775391C0.682362 0.775391 0.452169 0.873453 0.271302 1.06958C0.0904348 1.2657 -2.03899e-07 1.51532 -2.03899e-07 1.81842C-2.03899e-07 2.12152 0.0904348 2.37113 0.271302 2.56726L4.80942 7.48821C4.90807 7.59518 5.01495 7.67078 5.13005 7.715C5.24514 7.75993 5.36846 7.78239 5.5 7.78239Z" fill="black"/>
</svg>
